<mxfile host="Electron" agent="Mozilla/5.0 (Windows NT 10.0; Win64; x64) AppleWebKit/537.36 (KHTML, like Gecko) draw.io/26.1.1 Chrome/132.0.6834.210 Electron/34.3.3 Safari/537.36" version="26.1.1">
  <diagram name="Page-1" id="_EHdLlkseuFN6B7ibNpD">
    <mxGraphModel dx="794" dy="511" grid="1" gridSize="10" guides="1" tooltips="1" connect="1" arrows="1" fold="1" page="1" pageScale="1" pageWidth="850" pageHeight="1100" math="0" shadow="0">
      <root>
        <mxCell id="0" />
        <mxCell id="1" parent="0" />
        <mxCell id="LP6lKdzuLp1FrfVKkli5-1" value="" style="endArrow=classic;html=1;rounded=0;" parent="1" edge="1">
          <mxGeometry width="50" height="50" relative="1" as="geometry">
            <mxPoint x="320" y="360" as="sourcePoint" />
            <mxPoint x="760" y="360" as="targetPoint" />
          </mxGeometry>
        </mxCell>
        <mxCell id="LP6lKdzuLp1FrfVKkli5-2" value="" style="endArrow=classic;html=1;rounded=0;" parent="1" edge="1">
          <mxGeometry width="50" height="50" relative="1" as="geometry">
            <mxPoint x="320" y="360" as="sourcePoint" />
            <mxPoint x="320" y="120" as="targetPoint" />
          </mxGeometry>
        </mxCell>
        <mxCell id="LP6lKdzuLp1FrfVKkli5-3" value="&lt;font style=&quot;font-size: 15px;&quot;&gt;Load-bearing Capacity (MPa)&lt;/font&gt;" style="text;html=1;align=center;verticalAlign=middle;resizable=0;points=[];autosize=1;strokeColor=none;fillColor=none;rotation=-90;fontSize=14;fontStyle=1" parent="1" vertex="1">
          <mxGeometry x="185" y="230" width="220" height="30" as="geometry" />
        </mxCell>
        <mxCell id="LP6lKdzuLp1FrfVKkli5-4" value="&lt;font style=&quot;font-size: 15px;&quot;&gt;Drought Index (from NASA/ESA)&lt;/font&gt;" style="text;html=1;align=center;verticalAlign=middle;resizable=0;points=[];autosize=1;strokeColor=none;fillColor=none;rotation=0;fontSize=14;fontStyle=1" parent="1" vertex="1">
          <mxGeometry x="410" y="370" width="240" height="30" as="geometry" />
        </mxCell>
        <mxCell id="LP6lKdzuLp1FrfVKkli5-7" value="" style="endArrow=none;html=1;rounded=0;strokeWidth=3;fillColor=#e3c800;strokeColor=#FFAB00;" parent="1" edge="1">
          <mxGeometry width="50" height="50" relative="1" as="geometry">
            <mxPoint x="340" y="240" as="sourcePoint" />
            <mxPoint x="440" y="160" as="targetPoint" />
          </mxGeometry>
        </mxCell>
        <mxCell id="LP6lKdzuLp1FrfVKkli5-12" value="&lt;font style=&quot;font-size: 14px;&quot;&gt;&lt;b&gt;Glaciofluvial Deposit&lt;/b&gt;&lt;/font&gt;" style="edgeLabel;html=1;align=center;verticalAlign=middle;resizable=0;points=[];" parent="LP6lKdzuLp1FrfVKkli5-7" vertex="1" connectable="0">
          <mxGeometry x="0.6407" y="-4" relative="1" as="geometry">
            <mxPoint x="96" y="-18" as="offset" />
          </mxGeometry>
        </mxCell>
        <mxCell id="LP6lKdzuLp1FrfVKkli5-8" value="" style="endArrow=none;html=1;rounded=0;strokeWidth=3;strokeColor=#57C200;" parent="1" edge="1">
          <mxGeometry width="50" height="50" relative="1" as="geometry">
            <mxPoint x="350" y="280" as="sourcePoint" />
            <mxPoint x="600" y="190" as="targetPoint" />
          </mxGeometry>
        </mxCell>
        <mxCell id="LP6lKdzuLp1FrfVKkli5-11" value="&lt;font style=&quot;font-size: 14px;&quot;&gt;&lt;b&gt;Thick Moraine&lt;/b&gt;&lt;/font&gt;" style="edgeLabel;html=1;align=center;verticalAlign=middle;resizable=0;points=[];" parent="LP6lKdzuLp1FrfVKkli5-8" vertex="1" connectable="0">
          <mxGeometry x="0.3033" y="1" relative="1" as="geometry">
            <mxPoint x="148" y="-30" as="offset" />
          </mxGeometry>
        </mxCell>
        <mxCell id="LP6lKdzuLp1FrfVKkli5-9" value="" style="endArrow=none;html=1;rounded=0;strokeWidth=3;strokeColor=#4099FF;" parent="1" edge="1">
          <mxGeometry width="50" height="50" relative="1" as="geometry">
            <mxPoint x="470" y="270" as="sourcePoint" />
            <mxPoint x="720" y="230" as="targetPoint" />
          </mxGeometry>
        </mxCell>
        <mxCell id="LP6lKdzuLp1FrfVKkli5-10" value="&lt;font style=&quot;font-size: 14px;&quot;&gt;&lt;b&gt;Marine Deposit&lt;/b&gt;&lt;/font&gt;" style="edgeLabel;html=1;align=center;verticalAlign=middle;resizable=0;points=[];" parent="LP6lKdzuLp1FrfVKkli5-9" vertex="1" connectable="0">
          <mxGeometry x="0.1663" y="7" relative="1" as="geometry">
            <mxPoint x="75" y="20" as="offset" />
          </mxGeometry>
        </mxCell>
      </root>
    </mxGraphModel>
  </diagram>
</mxfile>
